<?xml version="1.0" encoding="UTF-8" standalone="no"?>
<svg
   viewBox="0 0 24 24"
   version="1.1"
   id="svg19"
   sodipodi:docname="folder.svg"
   xml:space="preserve"
   inkscape:export-filename="folder-iam.svg"
   inkscape:export-xdpi="96"
   inkscape:export-ydpi="96"
   xmlns:inkscape="http://www.inkscape.org/namespaces/inkscape"
   xmlns:sodipodi="http://sodipodi.sourceforge.net/DTD/sodipodi-0.dtd"
   xmlns="http://www.w3.org/2000/svg"
   xmlns:svg="http://www.w3.org/2000/svg"><defs
     id="defs23" /><sodipodi:namedview
     id="namedview21"
     pagecolor="#505050"
     bordercolor="#eeeeee"
     borderopacity="1"
     inkscape:showpageshadow="0"
     inkscape:pageopacity="0"
     inkscape:pagecheckerboard="0"
     inkscape:deskcolor="#505050"
     showgrid="false"><inkscape:grid
       type="xygrid"
       id="grid245" /></sodipodi:namedview><path
     d="M 10,4 H 4 C 2.89,4 2,4.89 2,6 v 12 a 2,2 0 0 0 2,2 h 16 a 2,2 0 0 0 2,-2 V 8 C 22,6.89 21.1,6 20,6 h -8 z"
     fill="#90a4ae"
     id="path17"
     style="fill:#ff9900;fill-opacity:1" /><g
     id="g3875"
     transform="matrix(0.00673262,0,0,0.00673262,19.538865,15.611494)"><g
       id="g3502"
       transform="matrix(5.1015625,0,0,5.1015625,-639.35125,-1241.988)"><path
         d="M 21,165.75 0,172.606 21.75,175.125 21,165.75 M 19.955,206.806 128,213.714 236.045,206.806 128,185.75 19.955,206.806 M 234.5,175.125 256,172.606 234.5,166.875 v 8.25"
         fill="#3c4929"
         id="path3475" /><path
         d="m 157.387,352.929 56.606,13.396 -56.756,17.116 0.15,-30.512"
         fill="#b7ca9d"
         id="path3477" /><path
         d="M 19.955,92.221 V 54.019 L 128,0 128.482,0.405 128.234,48.901 128,49.003 127.595,50.12 68.497,73.976 67.955,158.013 99.407,152.723 128,147.002 V 490.03 L 95.631,473.853 V 428.082 L 67.277,416.744 V 202.069 l -47.322,4.737 V 168.611 L 0,172.606 v -72.408 l 19.955,-7.977"
         fill="#4b612c"
         id="path3479" /><path
         d="m 99.408,152.727 -32.131,6.424 V 73.28 l 32.131,10.018 v 69.429 m 84.517,-124.768 52.106,26.06 V 92.221 L 256,100.198 V 172.6 l -19.969,-3.989 v 38.195 l -25.441,-2.538 -21.881,-2.199 v 42.939 h 47.336 v 39.284 l -21.997,1.974 v 39.611 l -53.692,10.672 v 45.77 l 53.57,-15.899 0.122,40.38 -53.692,21.282 v 45.771 L 128,490.03 V 147.002 l 28.572,5.71 30.583,4.038 V 73.966 L 128.817,51.468 128,49.003 V 0 l 55.925,27.959"
         fill="#759c3e"
         id="path3481" /><path
         d="M 160.356,61.941 128,49.01 67.277,73.28 99.408,83.298 160.356,61.941"
         fill="#3c4929"
         id="path3483" /><path
         d="M 67.277,73.28 128,49.01 l 12.775,5.104 19.581,7.827 28.353,11.353 -1.515,1.541 -28.876,8.991 -1.74,-0.528 L 128,73.28 99.408,83.298 67.277,73.28"
         fill="#3c4929"
         id="path3485" /><path
         d="m 156.578,83.298 32.131,-10.004 v 85.864 l -32.131,-6.446 V 83.298"
         fill="#4b612c"
         id="path3487" /></g></g><path
     d="M 18.982813,20 H 3.9828137 c -1.11,0 -2,-0.9 -2,-2 V 6 c 0,-1.11 0.89,-2 2,-2 h 5.9999995 l 1.9999998,2 h 7 a 2,2 0 0 1 2,2.0000001 H 3.9828137 V 18 l 2.14,-8 H 23.192813 l -2.28,8.5 c -0.23,0.87 -1.01,1.5 -1.93,1.5 z"
     fill="#90a4ae"
     id="path3877"
     style="display:none;fill:#94ae90;fill-opacity:1" /></svg>
